<svg width="58" height="58" viewBox="0 0 58 58" fill="none" xmlns="http://www.w3.org/2000/svg">
<path fill-rule="evenodd" clip-rule="evenodd" d="M39.0286 51.5906C35.8156 53.0941 32.2341 53.9333 28.4541 53.9333C24.6741 53.9333 21.0926 53.0941 17.8796 51.5906L17.0385 53.4012C20.5067 55.0247 24.3717 55.9329 28.4541 55.9329C32.5365 55.9329 36.4015 55.0247 39.8697 53.4012L39.0286 51.5906ZM4.38498 35.673C3.78963 33.5326 3.46835 31.2759 3.46835 28.9456C3.46835 26.9611 3.69512 25.0304 4.13927 23.1782L2.19251 22.718C1.72001 24.7176 1.46484 26.8023 1.46484 28.9456C1.46484 31.4621 1.81454 33.8993 2.45714 36.2107L4.38498 35.673ZM52.7689 23.1782C53.2131 25.0304 53.4398 26.9611 53.4398 28.9456C53.4398 31.2759 53.1186 33.5326 52.5232 35.673L54.4511 36.2107C55.0937 33.8993 55.4434 31.4621 55.4434 28.9456C55.4434 26.8023 55.1882 24.7176 54.7157 22.718L52.7689 23.1782ZM14.9973 7.89002C18.8813 5.40089 23.5023 3.95787 28.4541 3.95787C33.4059 3.95787 38.0269 5.40089 41.9109 7.89002L42.9882 6.20697C38.7924 3.51845 33.8028 1.95825 28.4541 1.95825C23.1054 1.95825 18.1158 3.51845 13.92 6.20697L14.9973 7.89002Z" fill="#0099FF"/>
<path fill-rule="evenodd" clip-rule="evenodd" d="M46.3899 8.459C45.5299 7.561 45 6.342 45 5C45 2.24 47.24 0 50 0C52.76 0 55 2.24 55 5C55 6.342 54.4701 7.561 53.6101 8.459L56.1799 9.561C57.2799 10.034 58 11.119 58 12.319V21H42V12.319C42 11.119 42.7201 10.034 43.8201 9.561L46.3899 8.459ZM48.45 9.754L44.6101 11.4C44.2401 11.557 44 11.919 44 12.319V19H56V12.319C56 11.919 55.7599 11.557 55.3899 11.4L51.55 9.754C51.06 9.913 50.54 10 50 10C49.46 10 48.94 9.913 48.45 9.754ZM50 2C51.66 2 53 3.344 53 5C53 6.656 51.66 8 50 8C48.34 8 47 6.656 47 5C47 3.344 48.34 2 50 2Z" fill="#0099FF"/>
<path fill-rule="evenodd" clip-rule="evenodd" d="M25.39 26.459C24.53 25.561 24 24.342 24 23C24 20.24 26.24 18 29 18C31.76 18 34 20.24 34 23C34 24.342 33.47 25.561 32.61 26.459L35.1801 27.561C36.2901 28.034 37 29.119 37 30.319V39H21V30.319C21 29.119 21.7199 28.034 22.8199 27.561L25.39 26.459ZM27.45 27.754L23.61 29.4C23.24 29.557 23 29.919 23 30.319V37H35V30.319C35 29.919 34.76 29.557 34.39 29.4L30.55 27.754C30.06 27.913 29.54 28 29 28C28.46 28 27.94 27.913 27.45 27.754ZM29 20C30.66 20 32 21.344 32 23C32 24.656 30.66 26 29 26C27.34 26 26 24.656 26 23C26 21.344 27.34 20 29 20Z" fill="#21D0FF"/>
<path fill-rule="evenodd" clip-rule="evenodd" d="M4.39001 45.459C3.53001 44.561 3 43.342 3 42C3 39.24 5.24 37 8 37C10.76 37 13 39.24 13 42C13 43.342 12.47 44.561 11.61 45.459L14.1801 46.561C15.2901 47.034 16 48.119 16 49.319V58H0V49.319C0 48.119 0.719946 47.034 1.81995 46.561L4.39001 45.459ZM6.44995 46.754L2.60999 48.4C2.23999 48.557 2 48.919 2 49.319V56H14V49.319C14 48.919 13.76 48.557 13.39 48.4L9.55005 46.754C9.06005 46.913 8.54 47 8 47C7.46 47 6.93995 46.913 6.44995 46.754ZM8 39C9.66 39 11 40.344 11 42C11 43.656 9.66 45 8 45C6.34 45 5 43.656 5 42C5 40.344 6.34 39 8 39Z" fill="#0099FF"/>
<path fill-rule="evenodd" clip-rule="evenodd" d="M4.39001 8.459C3.53001 7.561 3 6.342 3 5C3 2.24 5.24 0 8 0C10.76 0 13 2.24 13 5C13 6.342 12.47 7.561 11.61 8.459L14.1801 9.561C15.2901 10.034 16 11.119 16 12.319V21H0V12.319C0 11.119 0.719946 10.034 1.81995 9.561L4.39001 8.459ZM6.44995 9.754L2.60999 11.4C2.23999 11.557 2 11.919 2 12.319V19H14V12.319C14 11.919 13.76 11.557 13.39 11.4L9.55005 9.754C9.06005 9.913 8.54 10 8 10C7.46 10 6.93995 9.913 6.44995 9.754ZM8 2C9.66 2 11 3.344 11 5C11 6.656 9.66 8 8 8C6.34 8 5 6.656 5 5C5 3.344 6.34 2 8 2Z" fill="#0099FF"/>
<path fill-rule="evenodd" clip-rule="evenodd" d="M46.3899 45.459C45.5299 44.561 45 43.342 45 42C45 39.24 47.24 37 50 37C52.76 37 55 39.24 55 42C55 43.342 54.4701 44.561 53.6101 45.459L56.1799 46.561C57.2799 47.034 58 48.119 58 49.319V58H42V49.319C42 48.119 42.7201 47.034 43.8201 46.561L46.3899 45.459ZM48.45 46.754L44.6101 48.4C44.2401 48.557 44 48.919 44 49.319V56H56V49.319C56 48.919 55.7599 48.557 55.3899 48.4L51.55 46.754C51.06 46.913 50.54 47 50 47C49.46 47 48.94 46.913 48.45 46.754ZM50 39C51.66 39 53 40.344 53 42C53 43.656 51.66 45 50 45C48.34 45 47 43.656 47 42C47 40.344 48.34 39 50 39Z" fill="#0099FF"/>
</svg>
