<svg width="139" height="32" viewBox="0 0 139 32" fill="none" xmlns="http://www.w3.org/2000/svg">
<g clip-path="url(#clip0_114_443)">
<path d="M47.0139 8.12677C47.4407 7.42999 48.0437 6.85805 48.762 6.46859C49.4804 6.07914 50.2887 5.88594 51.1055 5.90846C51.9542 5.90236 52.782 6.17171 53.4646 6.67607C54.0635 7.10508 54.5237 7.69994 54.7886 8.38734C55.1249 7.80567 55.5752 7.29788 56.1125 6.89438C57.015 6.24088 58.1039 5.8952 59.2181 5.90846C59.8112 5.886 60.4006 6.01055 60.9338 6.27103C61.4671 6.53152 61.9276 6.91984 62.2745 7.40142C62.9443 8.31639 63.2866 9.43018 63.2463 10.5634V17.4648C63.2489 17.6083 63.2214 17.7507 63.1656 17.8829C63.1098 18.0151 63.0269 18.1341 62.9224 18.2324C62.8196 18.3344 62.6976 18.415 62.5634 18.4694C62.4292 18.5238 62.2855 18.551 62.1407 18.5493C61.9977 18.5512 61.8559 18.5244 61.7234 18.4706C61.591 18.4168 61.4707 18.337 61.3696 18.2359C61.2685 18.1348 61.1887 18.0145 61.1349 17.8821C61.081 17.7496 61.0543 17.6077 61.0562 17.4648V10.9648C61.1113 10.1691 60.9221 9.37544 60.5139 8.69015C60.2812 8.41642 59.9848 8.20395 59.6509 8.07135C59.3169 7.93875 58.9556 7.89008 58.5984 7.92959C57.19 7.92959 56.035 8.69954 55.1336 10.2394V17.4648C55.1362 17.6083 55.1087 17.7507 55.0529 17.8829C54.9971 18.0151 54.9143 18.1341 54.8097 18.2324C54.7069 18.3344 54.5849 18.415 54.4507 18.4694C54.3165 18.5238 54.1728 18.551 54.028 18.5493C53.8851 18.5512 53.7432 18.5244 53.6107 18.4706C53.4783 18.4168 53.358 18.337 53.2569 18.2359C53.1558 18.1348 53.076 18.0145 53.0222 17.8821C52.9684 17.7496 52.9416 17.6077 52.9435 17.4648V10.9648C52.9987 10.1691 52.8095 9.37544 52.4012 8.69015C52.1685 8.41642 51.8722 8.20395 51.5382 8.07135C51.2043 7.93875 50.8429 7.89008 50.4857 7.92959C49.0773 7.92959 47.9224 8.69954 47.021 10.2394V17.4648C47.0235 17.6083 46.996 17.7507 46.9402 17.8829C46.8844 18.0151 46.8016 18.1341 46.697 18.2324C46.5945 18.3348 46.4725 18.4155 46.3382 18.47C46.204 18.5244 46.0602 18.5514 45.9153 18.5493C45.7724 18.5512 45.6305 18.5244 45.4981 18.4706C45.3656 18.4168 45.2453 18.337 45.1442 18.2359C45.0432 18.1348 44.9633 18.0145 44.9095 17.8821C44.8557 17.7496 44.8289 17.6077 44.8308 17.4648V7.14086C44.8254 6.99303 44.85 6.84563 44.9033 6.70763C44.9566 6.56962 45.0373 6.44388 45.1407 6.33804C45.2389 6.23347 45.358 6.15063 45.4902 6.09483C45.6224 6.03904 45.7648 6.01154 45.9083 6.0141C46.2009 6.01594 46.4811 6.13302 46.688 6.33997C46.895 6.54692 47.0121 6.82707 47.0139 7.11973V8.12677Z" fill="#00AFEF"/>
<path d="M69.6756 15.662C70.4774 16.3443 71.512 16.69 72.5629 16.6268C73.6327 16.6613 74.6959 16.4467 75.6686 16C75.8975 15.8714 76.1528 15.7967 76.415 15.7817C76.6414 15.7912 76.8556 15.887 77.0136 16.0493C77.1017 16.1227 77.173 16.2141 77.2228 16.3173C77.2726 16.4206 77.2998 16.5333 77.3024 16.6479C77.3135 16.8327 77.27 17.0167 77.1774 17.177C77.0847 17.3373 76.9469 17.4667 76.7812 17.5493C76.4338 17.7324 76.124 17.8897 75.8517 18.0211C75.5647 18.1558 75.2681 18.2688 74.9643 18.3592C74.1476 18.5815 73.3037 18.6882 72.4573 18.6761C71.618 18.7271 70.7771 18.606 69.9863 18.3201C69.1955 18.0343 68.4715 17.5899 67.8587 17.0141C67.2799 16.3775 66.8346 15.6313 66.5492 14.8197C66.2637 14.0081 66.1439 13.1475 66.1967 12.2887C66.1499 10.7038 66.6469 9.15062 67.6052 7.88733C68.1248 7.23273 68.7936 6.71211 69.5557 6.36905C70.3177 6.02599 71.1509 5.87046 71.9855 5.9155C72.7878 5.87908 73.588 6.0249 74.3259 6.34202C75.0638 6.65914 75.7203 7.13931 76.246 7.74649C77.2392 8.92622 77.7631 10.4304 77.7179 11.9718C77.723 12.1174 77.6977 12.2625 77.6436 12.3978C77.5896 12.5331 77.508 12.6557 77.404 12.7577C77.3 12.8597 77.1759 12.9389 77.0395 12.9904C76.9032 13.0418 76.7577 13.0643 76.6122 13.0563H68.4432C68.5218 14.0463 68.9602 14.9732 69.6756 15.662ZM71.9855 7.74649C71.3347 7.719 70.6904 7.88493 70.1339 8.22335C69.5774 8.56176 69.1337 9.05747 68.8587 9.6479C68.6015 10.1502 68.4596 10.7035 68.4432 11.2676H75.5488C75.5411 10.7552 75.4254 10.2502 75.2094 9.78547C74.9935 9.32074 74.682 8.90674 74.2953 8.57043C73.6522 8.02222 72.8303 7.72904 71.9855 7.74649Z" fill="#00AFEF"/>
<path d="M85.1687 16.7465C85.4777 16.7632 85.7872 16.7275 86.0842 16.6409C86.2754 16.5687 86.4784 16.5328 86.6828 16.5352C86.9034 16.5361 87.1152 16.6219 87.2743 16.7747C87.3656 16.8669 87.4366 16.9772 87.4827 17.0984C87.5288 17.2197 87.549 17.3493 87.5419 17.4789C87.55 17.6324 87.5075 17.7844 87.421 17.9116C87.3346 18.0387 87.2088 18.1341 87.0631 18.1831C86.5144 18.4659 85.9119 18.6291 85.2955 18.662C84.8485 18.6652 84.4016 18.6417 83.9574 18.5916C83.2178 18.5083 82.5411 18.1357 82.0753 17.5551C81.6095 16.9745 81.3924 16.2331 81.4715 15.493V8.02818H79.7603C79.698 8.03776 79.6343 8.03253 79.5744 8.01291C79.5144 7.99329 79.46 7.95984 79.4154 7.91527C79.3708 7.87069 79.3374 7.81624 79.3178 7.75633C79.2982 7.69642 79.2929 7.63274 79.3025 7.57043C79.307 7.49056 79.3288 7.41262 79.3665 7.34207C79.4042 7.27152 79.4569 7.21006 79.5208 7.16198L82.7955 3.95775C82.8973 3.83374 83.0442 3.75523 83.2039 3.73944C83.2649 3.73816 83.3254 3.75008 83.3813 3.77439C83.4372 3.7987 83.4872 3.83483 83.5279 3.88029C83.6145 3.97141 83.6625 4.09257 83.6617 4.21832V6.14789H86.38C86.6293 6.14789 86.8684 6.24694 87.0448 6.42326C87.2211 6.59957 87.3201 6.83869 87.3201 7.08803C87.3201 7.33738 87.2211 7.5765 87.0448 7.75281C86.8684 7.92913 86.6293 8.02818 86.38 8.02818H83.6617V15.3028C83.6334 15.5425 83.6702 15.7853 83.7681 16.0058C83.866 16.2264 84.0214 16.4165 84.218 16.5563C84.5123 16.7033 84.8405 16.769 85.1687 16.7465Z" fill="#00AFEF"/>
<path d="M92.1128 8.17606C93.2348 6.66902 94.4954 5.9155 95.8944 5.9155H96.0142C96.1555 5.91125 96.2962 5.93662 96.4272 5.98999C96.5582 6.04335 96.6766 6.12352 96.7747 6.22536C96.8745 6.32904 96.9527 6.45155 97.0047 6.58576C97.0567 6.71996 97.0815 6.86318 97.0775 7.00705C97.082 7.14597 97.0559 7.28418 97.0012 7.41194C96.9464 7.53969 96.8643 7.65389 96.7606 7.74648C96.5394 7.93489 96.2552 8.03296 95.9649 8.02113H95.8452C95.0852 8.00959 94.3377 8.21478 93.6902 8.61268C93.06 9.00196 92.5218 9.52334 92.1128 10.1408V17.4648C92.1153 17.6083 92.0878 17.7507 92.032 17.8829C91.9762 18.0151 91.8934 18.1341 91.7888 18.2324C91.6863 18.3348 91.5643 18.4155 91.43 18.47C91.2958 18.5244 91.152 18.5514 91.0071 18.5493C90.8642 18.5512 90.7223 18.5244 90.5899 18.4706C90.4574 18.4168 90.3371 18.337 90.236 18.2359C90.135 18.1348 90.0551 18.0145 90.0013 17.882C89.9475 17.7496 89.9207 17.6077 89.9226 17.4648V7.14085C89.9172 6.99302 89.9418 6.84562 89.9951 6.70762C90.0484 6.56961 90.1291 6.44387 90.2325 6.33803C90.3307 6.23346 90.4498 6.15062 90.582 6.09482C90.7142 6.03903 90.8566 6.01153 91.0001 6.01409C91.2927 6.01593 91.5729 6.13301 91.7798 6.33996C91.9868 6.54691 92.1039 6.82706 92.1057 7.11972L92.1128 8.17606Z" fill="#00AFEF"/>
<path d="M99.6973 6.77465C101.02 6.20311 102.446 5.90833 103.887 5.90846C104.592 5.8668 105.296 5.97874 105.953 6.23653C106.61 6.49432 107.202 6.8918 107.69 7.40141C108.501 8.28711 108.933 9.4548 108.894 10.6549V17.4648C108.897 17.6083 108.87 17.7507 108.814 17.8829C108.758 18.0151 108.675 18.1341 108.571 18.2324C108.468 18.3348 108.346 18.4155 108.212 18.47C108.077 18.5244 107.934 18.5514 107.789 18.5493C107.646 18.5512 107.504 18.5244 107.372 18.4706C107.239 18.4168 107.119 18.337 107.018 18.2359C106.917 18.1348 106.837 18.0145 106.783 17.882C106.729 17.7496 106.702 17.6077 106.704 17.4648V16.838C106.183 17.3478 105.584 17.771 104.93 18.0916C104.063 18.5063 103.108 18.7045 102.148 18.669C101.138 18.7022 100.151 18.3583 99.3804 17.7042C99.0026 17.3769 98.7029 16.9692 98.503 16.5111C98.3032 16.0529 98.2084 15.5559 98.2255 15.0563C98.1994 14.5122 98.3086 13.9701 98.5434 13.4786C98.7781 12.987 99.131 12.5612 99.5705 12.2394C100.811 11.4273 102.281 11.0393 103.761 11.1338H106.676V10.9437C106.717 10.5262 106.668 10.1048 106.53 9.70847C106.393 9.31213 106.171 8.95029 105.88 8.64789C105.18 8.13088 104.319 7.88111 103.451 7.94367C102.359 7.97098 101.279 8.16574 100.247 8.52113C100.104 8.55538 99.957 8.57193 99.81 8.57043C99.6146 8.55442 99.4329 8.4636 99.3029 8.31691C99.207 8.21197 99.1338 8.0884 99.0878 7.95392C99.0417 7.81943 99.0239 7.6769 99.0353 7.53522C99.0514 7.35486 99.1241 7.1842 99.243 7.04762C99.3619 6.91103 99.5209 6.81549 99.6973 6.77465ZM100.444 14.7887C100.444 16.0751 101.294 16.716 102.993 16.7113C103.734 16.7142 104.462 16.5224 105.106 16.1549C105.703 15.8264 106.243 15.403 106.704 14.9014V12.9155H104.078C103.165 12.8858 102.257 13.044 101.409 13.3803C101.124 13.4891 100.879 13.6822 100.706 13.9339C100.534 14.1855 100.442 14.4837 100.444 14.7887Z" fill="#00AFEF"/>
<path d="M118.739 7.92957C117.331 7.92957 116.014 8.69952 114.789 10.2394V17.4648C114.791 17.6082 114.764 17.7507 114.708 17.8829C114.652 18.0151 114.569 18.1341 114.465 18.2324C114.362 18.3347 114.24 18.4155 114.106 18.4699C113.972 18.5244 113.828 18.5513 113.683 18.5493C113.54 18.5512 113.398 18.5244 113.266 18.4706C113.133 18.4168 113.013 18.3369 112.912 18.2359C112.811 18.1348 112.731 18.0145 112.677 17.882C112.623 17.7496 112.596 17.6077 112.598 17.4648V7.14083C112.593 6.9924 112.618 6.84446 112.673 6.70631C112.727 6.56815 112.81 6.44276 112.915 6.33802C113.016 6.23702 113.135 6.15746 113.267 6.10419C113.399 6.05092 113.541 6.02506 113.683 6.02816C113.827 6.02556 113.971 6.05161 114.105 6.1048C114.239 6.15798 114.361 6.23725 114.465 6.33802C114.571 6.44056 114.655 6.56439 114.711 6.70148C114.767 6.83857 114.793 6.98586 114.789 7.13379V8.11971C115.278 7.57879 115.837 7.10518 116.45 6.71126C117.236 6.21938 118.137 5.94476 119.063 5.91548C119.761 5.89055 120.455 6.01791 121.098 6.28872C121.615 6.52836 122.074 6.87667 122.443 7.30985C123.217 8.24107 123.62 9.42419 123.577 10.6338V17.4648C123.579 17.6105 123.55 17.7549 123.492 17.8884C123.433 18.022 123.347 18.1416 123.239 18.2394C123.137 18.3418 123.015 18.4226 122.88 18.477C122.746 18.5314 122.602 18.5584 122.458 18.5563C122.315 18.5582 122.173 18.5315 122.04 18.4776C121.908 18.4238 121.788 18.344 121.686 18.2429C121.585 18.1418 121.506 18.0215 121.452 17.8891C121.398 17.7566 121.371 17.6148 121.373 17.4718V10.8662C121.417 10.0994 121.202 9.34001 120.76 8.71126C120.507 8.43387 120.192 8.21897 119.841 8.08336C119.491 7.94775 119.114 7.89511 118.739 7.92957Z" fill="#00AFEF"/>
<path d="M129.986 15.662C130.788 16.3443 131.822 16.69 132.873 16.6268C133.943 16.6612 135.006 16.4467 135.979 16C136.208 15.8714 136.463 15.7967 136.725 15.7817C136.952 15.7912 137.166 15.8869 137.324 16.0493C137.412 16.1227 137.483 16.2141 137.533 16.3173C137.583 16.4206 137.61 16.5333 137.613 16.6479C137.624 16.8327 137.58 17.0167 137.488 17.177C137.395 17.3373 137.257 17.4667 137.091 17.5493C136.744 17.7324 136.434 17.8897 136.162 18.0211C135.875 18.1558 135.578 18.2688 135.275 18.3592C134.458 18.5815 133.614 18.6882 132.767 18.6761C131.928 18.7261 131.086 18.6039 130.296 18.3169C129.505 18.0299 128.781 17.5841 128.169 17.007C127.596 16.369 127.156 15.623 126.876 14.8128C126.595 14.0025 126.479 13.1444 126.535 12.2887C126.477 10.7056 126.961 9.15009 127.908 7.88028C128.428 7.22568 129.097 6.70506 129.859 6.362C130.621 6.01894 131.454 5.86342 132.289 5.90845C133.091 5.87203 133.891 6.01785 134.629 6.33497C135.367 6.65209 136.023 7.13226 136.549 7.73944C137.547 8.91997 138.073 10.4271 138.028 11.9718C138.033 12.1174 138.008 12.2625 137.954 12.3978C137.9 12.5331 137.818 12.6557 137.714 12.7577C137.61 12.8597 137.486 12.9389 137.35 12.9904C137.213 13.0418 137.068 13.0643 136.922 13.0563H128.76C128.837 14.0453 129.273 14.9721 129.986 15.662ZM132.296 7.74648C131.645 7.71899 131.001 7.88493 130.444 8.22334C129.888 8.56175 129.444 9.05746 129.169 9.64789C128.915 10.1486 128.776 10.6994 128.76 11.2606H135.866C135.858 10.7482 135.743 10.2431 135.527 9.77842C135.311 9.31369 134.999 8.89969 134.613 8.56338C133.967 8.01608 133.142 7.72534 132.296 7.74648Z" fill="#00AFEF"/>
<path d="M44.7109 24.1549H45.3659V30.0704H44.7109V24.1549Z" fill="#B5B5B5"/>
<path d="M46.8096 24.1549H47.887L49.7673 29.5211V24.1549H50.4222V30.0704H49.3518L47.4645 24.6902V30.0775H46.8096V24.1549Z" fill="#B5B5B5"/>
<path d="M51.2246 24.1549H54.9288V24.7465H53.4218V30.0704H52.7669V24.7465H51.2246V24.1549Z" fill="#B5B5B5"/>
<path d="M55.76 24.1549H56.4149V28.3803C56.4149 29.1925 56.7882 29.5986 57.5347 29.5986C58.2811 29.5986 58.6544 29.2066 58.6544 28.4225V24.1549H59.3093V28.662C59.326 28.8807 59.2914 29.1002 59.2083 29.3032C59.1252 29.5061 58.9958 29.6869 58.8304 29.831C58.4444 30.0944 57.9879 30.2353 57.5206 30.2353C57.0532 30.2353 56.5968 30.0944 56.2107 29.831C56.0536 29.68 55.9312 29.4966 55.8522 29.2934C55.7731 29.0903 55.7393 28.8725 55.753 28.6549L55.76 24.1549Z" fill="#B5B5B5"/>
<path d="M60.8027 24.1549H61.4577V30.0704H60.8027V24.1549Z" fill="#B5B5B5"/>
<path d="M62.4219 24.1549H66.1613V24.7465H64.612V30.0704H63.9571V24.7465H62.4219V24.1549Z" fill="#B5B5B5"/>
<path d="M67.0986 24.1549H67.7536V30.0704H67.0986V24.1549Z" fill="#B5B5B5"/>
<path d="M70.7811 29.5775L72.1895 24.1197H72.8937L71.1684 30.0352H70.3797L68.6543 24.1197H69.3585L70.7811 29.5775Z" fill="#B5B5B5"/>
<path d="M73.6406 30.0775V24.1549H76.5772V24.7465H74.2956V26.7042H76.4082V27.2958H74.2956V29.4789H76.5984V30.0704L73.6406 30.0775Z" fill="#B5B5B5"/>
<path d="M79.7744 30.0775V24.1549H81.4082C81.6922 24.133 81.9775 24.1762 82.2423 24.2812C82.5071 24.3861 82.7445 24.5501 82.9364 24.7606C83.3518 25.4526 83.5321 26.2604 83.4505 27.0634C83.496 27.8355 83.3356 28.6059 82.9857 29.2958C82.8333 29.5492 82.614 29.7556 82.3518 29.8923C82.0896 30.029 81.7948 30.0906 81.4998 30.0704L79.7744 30.0775ZM80.4293 29.4859H81.4646C81.6613 29.4993 81.8579 29.4584 82.0329 29.3677C82.208 29.2771 82.3549 29.1402 82.4575 28.9718C82.7168 28.3784 82.8256 27.7301 82.7744 27.0845C82.8054 26.4929 82.7068 25.9017 82.4857 25.3521C82.3911 25.159 82.2402 24.999 82.0529 24.8934C81.8655 24.7878 81.6506 24.7415 81.4364 24.7606H80.4293V29.4859Z" fill="#B5B5B5"/>
<path d="M84.1123 30.0775L85.7743 24.162H86.6193L88.2813 30.0775H87.5771L87.1193 28.3803H85.2531L84.8306 30.0775H84.1123ZM85.4222 27.7887H86.9715L86.1968 24.5986L85.4222 27.7887Z" fill="#B5B5B5"/>
<path d="M88.6198 24.1549H92.3592V24.7465H90.8451V30.0704H90.1409V24.7465H88.5986L88.6198 24.1549Z" fill="#B5B5B5"/>
<path d="M92.5986 30.0775L94.2606 24.162H95.1338L96.7958 30.0775H96.0916L95.6338 28.3803H93.7676L93.3451 30.0775H92.5986ZM93.9085 27.7887H95.4578L94.6831 24.5986L93.9085 27.7887Z" fill="#B5B5B5"/>
<path d="M103.465 30.0775H102.683C102.617 29.8464 102.568 29.6111 102.535 29.3732C102.51 29.1535 102.499 28.9324 102.5 28.7113C102.529 28.3822 102.431 28.0545 102.225 27.7958C102.128 27.6978 102.011 27.6214 101.883 27.5716C101.754 27.5219 101.616 27.4999 101.479 27.507H100.359V30.0986H99.7041V24.1549H101.253C101.798 24.092 102.346 24.2436 102.782 24.5775C102.925 24.7333 103.036 24.9165 103.108 25.1161C103.179 25.3158 103.209 25.5278 103.197 25.7394C103.217 25.9082 103.202 26.0792 103.154 26.2422C103.106 26.4052 103.026 26.557 102.918 26.6883C102.81 26.8197 102.677 26.9281 102.527 27.0071C102.376 27.086 102.211 27.1339 102.042 27.1479C102.348 27.1553 102.64 27.2728 102.866 27.4789C103.029 27.693 103.113 27.9565 103.106 28.2254C103.106 28.5211 103.148 28.9484 103.232 29.507C103.279 29.7746 103.357 29.9155 103.465 29.9296V30.0775ZM102.528 25.8099C102.528 25.1056 102.115 24.7535 101.289 24.7535H100.366V26.8662H101.408C102.155 26.885 102.528 26.5305 102.528 25.8028V25.8099Z" fill="#B5B5B5"/>
<path d="M104.514 30.0775V24.1549H107.45V24.7465H105.169V26.7042H107.281V27.2958H105.169V29.4789H107.471V30.0704L104.514 30.0775Z" fill="#B5B5B5"/>
<path d="M108.634 24.1549H110.204C110.713 24.109 111.219 24.266 111.613 24.5915C111.764 24.7546 111.881 24.9467 111.956 25.156C112.031 25.3654 112.062 25.5878 112.049 25.8099C112.066 26.0484 112.035 26.2879 111.958 26.5141C111.88 26.7404 111.758 26.9487 111.599 27.1268C111.148 27.4748 110.581 27.6362 110.014 27.5775H109.31V30.0704H108.655L108.634 24.1549ZM109.289 24.7465V26.9789H109.944C110.351 27.0279 110.763 26.9306 111.106 26.7042C111.21 26.5873 111.29 26.4501 111.34 26.3011C111.389 26.1521 111.408 25.9945 111.394 25.838C111.408 25.687 111.389 25.5348 111.339 25.3915C111.29 25.2482 111.21 25.1172 111.106 25.007C110.777 24.7917 110.384 24.6971 109.993 24.7394L109.289 24.7465Z" fill="#B5B5B5"/>
<path d="M112.894 26.8944C112.846 26.1452 113.012 25.3978 113.372 24.7394C113.541 24.515 113.759 24.3319 114.009 24.204C114.26 24.0761 114.536 24.0069 114.816 24.0014C115.097 23.996 115.376 24.0546 115.631 24.1727C115.886 24.2908 116.11 24.4653 116.288 24.6831C116.674 25.3985 116.843 26.2111 116.774 27.0211C116.854 27.8936 116.683 28.7709 116.281 29.5493C116.123 29.7744 115.912 29.9567 115.666 30.0797C115.42 30.2026 115.147 30.2624 114.872 30.2535C114.581 30.2826 114.287 30.2326 114.022 30.1086C113.757 29.9847 113.53 29.7914 113.365 29.5493C112.986 28.7184 112.824 27.805 112.894 26.8944ZM113.598 26.9366C113.552 27.6515 113.643 28.3685 113.865 29.0493C113.953 29.2377 114.097 29.3944 114.277 29.4977C114.458 29.6011 114.666 29.6462 114.872 29.6268C115.079 29.6463 115.287 29.5995 115.466 29.4932C115.644 29.3868 115.784 29.2264 115.865 29.0352C116.084 28.3535 116.175 27.6372 116.133 26.9225C116.133 25.3732 115.703 24.5986 114.844 24.5986C113.985 24.5986 113.56 25.3779 113.57 26.9366H113.598Z" fill="#B5B5B5"/>
<path d="M121.753 30.0775H120.971C120.906 29.8464 120.856 29.6111 120.823 29.3732C120.798 29.1535 120.787 28.9324 120.788 28.7113C120.817 28.3822 120.719 28.0545 120.513 27.7958C120.416 27.6978 120.3 27.6214 120.171 27.5716C120.042 27.5219 119.905 27.4999 119.767 27.507H118.647V30.0986H117.992V24.1549H119.541C120.086 24.092 120.634 24.2436 121.07 24.5775C121.213 24.7333 121.324 24.9165 121.396 25.1161C121.467 25.3158 121.498 25.5278 121.485 25.7394C121.505 25.9082 121.49 26.0792 121.442 26.2422C121.394 26.4052 121.314 26.557 121.206 26.6883C121.098 26.8197 120.965 26.9281 120.815 27.0071C120.664 27.086 120.5 27.1339 120.33 27.1479C120.624 27.158 120.906 27.27 121.126 27.4648C121.289 27.6789 121.373 27.9424 121.365 28.2113C121.365 28.507 121.408 28.9343 121.492 29.493C121.539 29.7606 121.617 29.9014 121.725 29.9155L121.753 30.0775ZM120.816 25.8099C120.816 25.1056 120.403 24.7535 119.577 24.7535H118.654V26.8662H119.682C120.438 26.885 120.816 26.5305 120.816 25.8028V25.8099Z" fill="#B5B5B5"/>
<path d="M122.345 24.1549H126.056V24.7465H124.514V30.0704H123.859V24.7465H122.316L122.345 24.1549Z" fill="#B5B5B5"/>
<path d="M127.021 24.1549H127.675V30.0704H127.021V24.1549Z" fill="#B5B5B5"/>
<path d="M129.119 24.1549H130.197L132.077 29.5211V24.1549H132.732V30.0704H131.69L129.809 24.6831V30.0704H129.154L129.119 24.1549Z" fill="#B5B5B5"/>
<path d="M135.654 27.6197V27.0282H137.605V30.1408H137.105V29.1831C137.045 29.4963 136.872 29.7765 136.619 29.9701C136.365 30.1637 136.049 30.2571 135.732 30.2324C135.456 30.2465 135.181 30.1891 134.935 30.0657C134.688 29.9423 134.477 29.7571 134.323 29.5282C133.944 28.8078 133.778 27.9944 133.844 27.1831C133.782 26.3426 133.948 25.501 134.323 24.7465C134.478 24.5026 134.696 24.3048 134.954 24.1736C135.211 24.0423 135.499 23.9824 135.788 24C136.028 23.9858 136.269 24.023 136.493 24.1093C136.718 24.1955 136.922 24.3287 137.091 24.5C137.416 24.8731 137.582 25.3581 137.556 25.8521H136.851C136.818 25.0164 136.45 24.5986 135.746 24.5986C135.547 24.5879 135.351 24.6364 135.18 24.738C135.009 24.8395 134.873 24.9896 134.788 25.169C134.546 25.8213 134.446 26.5173 134.492 27.2113C134.444 27.8616 134.545 28.5145 134.788 29.1197C134.878 29.2846 135.014 29.4205 135.178 29.5115C135.343 29.6025 135.53 29.6449 135.718 29.6338C135.914 29.6523 136.112 29.6085 136.282 29.5087C136.453 29.4089 136.588 29.2581 136.668 29.0775C136.856 28.6128 136.942 28.1134 136.922 27.6127L135.654 27.6197Z" fill="#B5B5B5"/>
<path d="M18.3305 31.9929C27.1204 31.9929 34.246 24.8673 34.246 16.0774C34.246 7.28757 27.1204 0.161957 18.3305 0.161957C9.54065 0.161957 2.41504 7.28757 2.41504 16.0774C2.41504 24.8673 9.54065 31.9929 18.3305 31.9929Z" fill="#00AFEF"/>
<path d="M19.2105 31.5845C27.8371 31.5845 34.8303 24.5913 34.8303 15.9648C34.8303 7.33825 27.8371 0.345062 19.2105 0.345062C10.584 0.345062 3.59082 7.33825 3.59082 15.9648C3.59082 24.5913 10.584 31.5845 19.2105 31.5845Z" fill="#21D0FF"/>
<path d="M0.95037 27.993H0.908116C0.672822 27.9726 0.453724 27.8647 0.294092 27.6906C0.134459 27.5166 0.0458984 27.289 0.0458984 27.0528C0.0458984 26.8166 0.134459 26.589 0.294092 26.415C0.453724 26.2409 0.672822 26.1331 0.908116 26.1127C1.03488 26.1127 6.7391 25.9014 11.5208 12.8591C11.6616 12.4789 12.0349 11.4507 12.9292 11.5634C13.9645 11.669 14.1194 12.7324 14.4856 15.2887C14.6808 16.8121 15.0179 18.314 15.4926 19.7746C16.2602 18.1831 17.6405 14.1408 18.4433 11.831C18.887 10.5422 19.3025 9.33098 19.6194 8.45774C20.1264 7.0845 20.394 6.34506 21.2814 6.47887C21.5251 6.52344 21.7435 6.65688 21.8945 6.85335C22.0454 7.04981 22.118 7.2953 22.0983 7.54225C22.0983 12.4014 23.7954 19.5704 24.8307 21.9366C25.3307 21.0493 26.0771 19.5422 26.8095 18.0704C29.4292 12.7887 33.387 4.80985 37.2039 1.2183C37.2904 1.11887 37.3967 1.03864 37.5161 0.982795C37.6354 0.926949 37.7651 0.89672 37.8969 0.894053C38.0286 0.891387 38.1595 0.916342 38.281 0.967314C38.4025 1.01828 38.512 1.09414 38.6024 1.19C38.6928 1.28585 38.7622 1.39958 38.806 1.52387C38.8498 1.64815 38.8671 1.78023 38.8567 1.91159C38.8464 2.04296 38.8086 2.17071 38.7459 2.2866C38.6832 2.4025 38.5969 2.50398 38.4926 2.5845C34.9292 5.94365 31.056 13.7394 28.4997 18.9014C26.1476 23.6408 25.8025 24.2535 25.0138 24.3803C24.8345 24.4057 24.6519 24.3911 24.479 24.3375C24.3061 24.2839 24.1472 24.1927 24.0137 24.0704C22.6828 22.9296 21.1405 16.7253 20.4926 11.5986L20.2039 12.4366C17.1757 21.2817 16.6828 22.1056 15.5842 22.0775C13.6123 22.0141 13.1687 18.8732 12.6898 15.5493L12.6757 15.2606C7.61234 27.6479 1.59826 27.993 0.95037 27.993Z" fill="#00AFEF"/>
<path d="M0.95037 27.0352H0.908116C0.672822 27.0148 0.453724 26.907 0.294092 26.7329C0.134459 26.5588 0.0458984 26.3312 0.0458984 26.0951C0.0458984 25.8589 0.134459 25.6313 0.294092 25.4572C0.453724 25.2832 0.672822 25.1753 0.908116 25.1549C1.03488 25.1549 6.7391 24.9437 11.5208 11.9014C11.6616 11.5211 12.0349 10.493 12.9292 10.6056C13.9645 10.7113 14.1194 11.7746 14.4856 14.331C14.6808 15.8544 15.0179 17.3562 15.4926 18.8169C16.2602 17.2254 17.6405 13.1831 18.4433 10.8732C18.887 9.58451 19.3025 8.37324 19.6194 7.5C20.1264 6.12676 20.394 5.38732 21.2814 5.52113C21.5251 5.5657 21.7435 5.69914 21.8945 5.8956C22.0454 6.09207 22.118 6.33755 22.0983 6.58451C22.0983 11.4437 23.7954 18.6127 24.8307 20.9789C25.3307 20.0915 26.0771 18.5845 26.8095 17.1127C29.4292 11.831 33.394 3.85211 37.2039 0.25352C37.2904 0.154083 37.3967 0.0738589 37.5161 0.0180127C37.6354 -0.0378334 37.7651 -0.0680631 37.8969 -0.0707296C38.0286 -0.0733961 38.1595 -0.0484403 38.281 0.00253077C38.4025 0.0535018 38.512 0.129358 38.6024 0.225214C38.6928 0.321071 38.7622 0.434802 38.806 0.559084C38.8498 0.683366 38.8671 0.815444 38.8567 0.946812C38.8464 1.07818 38.8086 1.20592 38.7459 1.32182C38.6832 1.43772 38.5969 1.53919 38.4926 1.61972C34.9292 4.98591 31.056 12.7817 28.4997 17.9437C26.1476 22.6831 25.8025 23.2958 25.0138 23.4225C24.8345 23.448 24.6519 23.4334 24.479 23.3798C24.3061 23.3262 24.1472 23.235 24.0137 23.1127C22.6828 21.9718 21.1405 15.7676 20.4926 10.6408L20.2039 11.4789C17.1898 20.331 16.6757 21.1268 15.5983 21.1268C13.6264 21.0634 13.1828 17.9225 12.7039 14.5986L12.6757 14.3028C7.61234 26.6901 1.59826 27.0352 0.95037 27.0352Z" fill="white"/>
</g>
<defs>
<clipPath id="clip0_114_443">
<rect width="138.028" height="32" fill="white"/>
</clipPath>
</defs>
</svg>
