<svg width="373" height="365" viewBox="0 0 373 365" fill="none" xmlns="http://www.w3.org/2000/svg">
<path d="M43.2805 96C42.5505 96.04 41.9805 95.59 42.0005 95C42.0205 94.41 42.6205 93.9 43.3505 93.85C48.0705 93.59 51.3705 93.18 54.2005 92.1C57.0005 91.04 59.4305 89.29 62.4505 86.33C62.9205 85.87 63.0105 85.78 63.1205 85.67C64.9805 83.83 67.8605 80.97 71.2505 78.58C77.1805 74.41 84.5205 71.72 90.7005 77.78C101.771 88.65 111.271 91.2 121.791 74.61C122.161 74.03 122.501 73.45 122.811 72.89C125.041 68.78 128.041 63.72 131.701 60.24C135.681 56.45 140.361 54.46 145.621 57.13C150.951 59.83 153.971 62.33 156.921 64.78C159.111 66.6 161.261 68.39 164.311 70.19C167.441 72.03 171.17 72.05 175.02 71.19C182.61 69.5 190.041 55.96 203.601 63.79L204.051 64.04C214.511 70.09 223.74 74.89 235.83 65.42C236.76 64.69 237.791 63.82 238.871 62.86L238.611 66.07C238.251 66.37 237.91 66.65 237.57 66.91C223.82 77.69 213.951 72.51 202.411 65.84L201.96 65.59C190.54 58.99 182.971 71.61 175.501 73.28C170.951 74.29 166.501 74.25 162.651 71.99C159.441 70.1 157.221 68.25 154.971 66.38C152.111 64.01 149.191 61.58 144.101 59.01C140.261 57.07 136.721 58.65 133.651 61.58C130.261 64.82 127.381 69.67 125.231 73.63C124.941 74.18 124.57 74.8 124.14 75.48C116.16 88.06 106.061 92.93 94.6205 84.45C92.5405 82.91 90.5205 81.1 88.6505 79.27C83.7705 74.48 77.7805 76.74 72.9005 80.18C69.7105 82.43 66.9305 85.18 65.1405 86.97C64.7605 87.35 64.5105 87.59 64.4505 87.65C61.1405 90.9 58.4005 92.86 55.1605 94.08C51.9605 95.29 48.3705 95.75 43.3205 96.03L43.2805 96Z" fill="#1EA4F8"/>
<path d="M58.5906 49H57.3806V96.4H58.5906V49Z" fill="#E6E1EF"/>
<path d="M84.5906 49H83.3806V97.87H84.5906V49Z" fill="#E6E1EF"/>
<path d="M141.271 49H140.061V96.4H141.271V49Z" fill="#E6E1EF"/>
<path d="M111.751 49H110.551V96.4H111.751V49Z" fill="#E6E1EF"/>
<path d="M167.821 49H166.611V96.4H167.821V49Z" fill="#E6E1EF"/>
<path d="M194.37 49H193.16V96.4H194.37V49Z" fill="#E6E1EF"/>
<path d="M219.39 49H218.19V96.4H219.39V49Z" fill="#E6E1EF"/>
<path d="M117.121 108.21H104.301V111.97H117.121V108.21Z" fill="#E6E1EF"/>
<path d="M146.201 108.21H133.381V111.97H146.201V108.21Z" fill="#E6E1EF"/>
<path d="M173.181 108.21H160.361V111.97H173.181V108.21Z" fill="#E6E1EF"/>
<path d="M200.151 108.21H187.331V111.97H200.151V108.21Z" fill="#E6E1EF"/>
<path d="M224.941 108.21H212.121V111.97H224.941V108.21Z" fill="#E6E1EF"/>
<path d="M91.0004 108.21H78.1804V111.97H91.0004V108.21Z" fill="#E6E1EF"/>
<path fill-rule="evenodd" clip-rule="evenodd" d="M189.291 95.1402L185.761 90.7502C180.981 87.0902 182.451 93.2502 178.721 90.0302C178.711 90.0202 174.861 86.4002 173.681 89.4702C173.481 91.7602 170.311 92.3002 170.091 90.7202C168.361 88.6902 163.691 89.2202 163.331 92.2202C163.151 93.6702 165.241 96.3602 161.721 95.7402C160.781 95.5802 159.151 96.6702 158.821 97.5002C158.441 98.4702 158.551 98.7102 159.981 99.9002C160.381 100.23 161.111 101.06 160.851 101.87C160.691 102.39 160.111 102.9 158.781 103.26C155.271 104.21 154.221 105.61 156.291 108.69C157.621 110.69 155.041 108.17 153.891 111.16C152.321 115.26 158.661 117.97 161.711 118.42C166.841 119.18 171.571 118.67 174.081 114.08C174.251 113.77 174.811 112.73 174.981 112.53C177.491 115.45 175.791 117.1 180.671 117.31C185.051 117.5 189.741 115.81 186.511 113.17C183.531 110.74 192.761 111.5 191.411 106.69C190.811 104.53 187.521 107.78 187.521 104.77C187.521 99.6102 197.781 103.08 193.421 96.7402C192.671 95.6602 190.811 93.7702 189.301 95.1202L189.291 95.1402Z" fill="#F73460"/>
<path fill-rule="evenodd" clip-rule="evenodd" d="M157.25 118.77L162.88 112.34C170.6 109.94 192.7 112.45 194.59 124.04C195.93 132.2 193.42 155.44 185.16 159.92C175.3 160.18 157.65 153.73 157.65 141.59C157.65 134.17 157.24 126.46 157.24 118.77H157.25Z" fill="#6426B7"/>
<path fill-rule="evenodd" clip-rule="evenodd" d="M93.1905 161.05L83.7205 250.14L86.4805 252.76L86.8105 252.69L96.2404 163.94L93.1905 161.05Z" fill="#D5CCE4"/>
<path fill-rule="evenodd" clip-rule="evenodd" d="M168.16 152.6L182.49 233.48L185.32 235.07L171.7 154.71L168.16 152.6Z" fill="#D5CCE4"/>
<path fill-rule="evenodd" clip-rule="evenodd" d="M181.12 197.94L176.94 194.72L92.9404 205.67L98.0804 209.53L181.12 197.94Z" fill="#D5CCE4"/>
<path fill-rule="evenodd" clip-rule="evenodd" d="M170.44 154.58L185.25 235.1H193.97L179.16 154.58H170.44Z" fill="#CBC0DE"/>
<path fill-rule="evenodd" clip-rule="evenodd" d="M104.58 164.42L95.5904 250.93L86.6904 252.72L95.8704 164.42H104.58Z" fill="#CBC0DE"/>
<path fill-rule="evenodd" clip-rule="evenodd" d="M181.991 197.35L97.3206 208.35L98.5205 217.04L183.181 206.04L181.991 197.35Z" fill="#CBC0DE"/>
<path fill-rule="evenodd" clip-rule="evenodd" d="M226.691 247.49C230.621 250.75 228.191 253.29 223.701 253.68C218.611 259.01 210.561 257.26 209.381 256.37C209.361 255.52 211.231 254.12 212.671 253.14C215.391 251.28 217.261 249.87 218.721 248.65C221.181 246.61 223.511 244.86 226.691 247.48V247.49Z" fill="#FFA623"/>
<path fill-rule="evenodd" clip-rule="evenodd" d="M217.19 238.09L223.86 238.53C223 238.33 223.59 240.55 225.43 248.04C225.21 249.55 221.87 249.89 221.15 249.12C220.07 248.34 219.7 241.94 217.18 238.09H217.19Z" fill="#9D5959"/>
<path fill-rule="evenodd" clip-rule="evenodd" d="M224.16 215.47L260.15 221.99C260.88 220.38 259.94 221.3 260.03 220.93C259.45 220.25 259.41 219.24 258.94 218.22C258.59 217.46 258.23 216.7 257.82 215.8C254.42 208.45 257.061 206.86 250.181 203.41C245.021 200.82 225.61 196.9 219.6 196.92C218.11 196.52 218.09 196.8 216.95 196.73C198.66 195.67 200.861 206.44 207.621 219.87C209.641 223.89 215.47 240.34 217.97 243.65C220.98 245.72 225.82 244.15 225.89 242.91C226.33 236.26 218.85 220.04 224.16 215.46V215.47Z" fill="#481B85"/>
<path fill-rule="evenodd" clip-rule="evenodd" d="M237.771 243.9C242.271 244.94 241.971 250.74 237.911 252.16C234.081 259.59 224.871 260.37 223.311 259.81C223.031 258.9 224.551 256.73 225.851 255.24C227.581 253.27 229.51 250.87 231.38 248.77C237.24 242.2 228.07 241.66 237.76 243.9H237.771Z" fill="#FFA623"/>
<path fill-rule="evenodd" clip-rule="evenodd" d="M226.061 237.53L233.231 237.26C232.571 237.58 235.29 239.76 239 245.9C238.97 247.15 235.581 248.16 234.281 247.63C232.231 246.35 230.521 240.14 226.061 237.53Z" fill="#9D5959"/>
<path fill-rule="evenodd" clip-rule="evenodd" d="M240.74 193.83L267.24 205.75C265.57 212.43 258.73 214.6 254.15 214.73C244.95 214.98 238.6 215.16 228.3 214.24C227.55 214.17 228.04 214.33 227.45 214.61C230.67 216.52 237.1 234.86 238.32 241.44C238.67 243.29 232 245.67 230.24 245.58C227.28 240.34 207.36 210.53 207.02 206.7C206.08 195.99 268.98 188.82 240.74 193.84V193.83Z" fill="#6426B7"/>
<path fill-rule="evenodd" clip-rule="evenodd" d="M170.901 117.74C154.981 93.9402 188.231 94.3302 181.901 111.79C181.461 113.02 173.331 120 170.901 117.74Z" fill="#1B95F7"/>
<path fill-rule="evenodd" clip-rule="evenodd" d="M181.831 111.67C181.871 114.25 180.631 116.84 178.461 118.97C178.251 119.18 178.201 119.3 177.871 119.58L177.671 119.75L177.471 119.93C175.641 121.53 172.621 122.76 170.501 120.64C169.111 119.25 168.551 117.28 167.861 115.5C166.061 110.89 165.761 104 173.271 103.47C178.361 103.11 181.751 107 181.821 111.67H181.831Z" fill="#F6BEB7"/>
<path fill-rule="evenodd" clip-rule="evenodd" d="M238.591 134.11L255.061 141.51L255.141 141.94C256.291 147.86 252.411 175.67 252.051 180.97C252.041 181.13 251.961 181.42 251.931 181.63L251.901 181.85C251.071 188.31 248.991 191.53 241.531 188.77C236.351 186.85 228.731 154.8 225.601 149.27C224.131 146.67 225.111 146.58 227.031 143.43C227.721 142.3 236.351 134.69 237.151 134.36C237.711 134.13 238.011 134.13 238.581 134.11H238.591Z" fill="#6426B7"/>
<path d="M238.591 134.11L238.471 134.37L254.811 141.71L254.861 142C255.001 142.73 255.071 143.84 255.071 145.22C255.071 149.9 254.321 157.69 253.541 164.87C252.751 172.05 251.931 178.63 251.761 180.96C251.761 181.07 251.671 181.36 251.641 181.6L251.611 181.82C251.301 184.24 250.811 186.19 249.961 187.49C249.101 188.79 247.941 189.48 246.091 189.49C244.901 189.49 243.431 189.18 241.631 188.52C241.091 188.33 240.421 187.66 239.731 186.61C237.281 182.93 234.491 174.76 231.981 166.94C230.731 163.03 229.541 159.2 228.501 156.04C227.461 152.88 226.561 150.4 225.851 149.14C225.361 148.29 225.171 147.74 225.181 147.31C225.181 146.88 225.361 146.5 225.731 145.93C226.101 145.37 226.641 144.65 227.291 143.59C227.351 143.49 227.561 143.25 227.851 142.94C228.901 141.85 231.101 139.82 233.131 138.05C234.141 137.16 235.111 136.33 235.861 135.71C236.241 135.4 236.561 135.14 236.811 134.95C237.051 134.76 237.251 134.64 237.271 134.63C237.791 134.42 238.021 134.42 238.601 134.4V134.11L238.471 134.37L238.591 134.11V133.82C238.021 133.84 237.641 133.85 237.051 134.09C236.961 134.13 236.871 134.18 236.761 134.26C235.921 134.84 233.631 136.8 231.431 138.77C230.331 139.75 229.271 140.73 228.431 141.53C228.011 141.93 227.651 142.29 227.371 142.58C227.091 142.88 226.901 143.1 226.791 143.27C226.161 144.31 225.631 145.01 225.241 145.6C224.861 146.18 224.601 146.69 224.601 147.29C224.601 147.89 224.851 148.52 225.351 149.41C226.111 150.74 227.181 153.79 228.411 157.59C230.261 163.3 232.501 170.76 234.771 176.98C235.901 180.09 237.041 182.89 238.151 185.01C238.701 186.07 239.251 186.97 239.791 187.65C240.331 188.33 240.861 188.82 241.431 189.03C243.271 189.71 244.811 190.04 246.091 190.04C248.081 190.04 249.501 189.22 250.431 187.78C251.361 186.34 251.851 184.33 252.171 181.87L252.201 181.65C252.221 181.46 252.311 181.19 252.331 180.97C252.491 178.68 253.321 172.09 254.101 164.91C254.891 157.72 255.631 149.93 255.631 145.2C255.631 143.8 255.571 142.67 255.411 141.87L255.331 141.44L255.301 141.29L238.631 133.8H238.561L238.571 134.09L238.591 134.11Z" fill="#131414"/>
<path fill-rule="evenodd" clip-rule="evenodd" d="M208.741 120.74L207.51 105.27C206.81 104.08 207.42 102.24 207.85 101.01C207.96 100.69 208.67 100.2 208.97 100.22C217.83 100.48 233.94 106.46 239.44 112.74C245.11 119.22 257.51 134.82 257.19 146.15C248.49 156.34 242.54 157.97 245.79 157.84C245.57 158.05 240.2 153.08 239.42 152.28C235.78 148.5 231.34 145.56 227.69 142.27C225 139.84 221.73 137.06 219.17 134.66C215.44 131.18 214.57 127.61 210.91 124.35C209.96 123.51 209.22 121.9 208.75 120.75L208.741 120.74Z" fill="#DDD6E9"/>
<path fill-rule="evenodd" clip-rule="evenodd" d="M185.281 92.8201L184.041 95.9101C184.661 97.8901 184.261 100.33 185.771 102.67C185.791 103.18 186.471 104.78 187.461 106.75C189.621 111.08 194.171 116.47 195.121 116.73C195.451 116.82 195.391 116.82 195.491 116.85C198.021 117.64 200.831 114.11 203.641 111.02C209.911 104.09 207.791 95.4101 200.531 94.3701C194.051 93.4501 189.501 89.8201 185.291 92.8101L185.281 92.8201Z" fill="#F3C1BB"/>
<path fill-rule="evenodd" clip-rule="evenodd" d="M208.12 99.93C208.23 99.81 206.01 94.62 205.8 93.89C205.52 92.94 205.94 91.38 205.57 90.15C205.47 89.83 205.47 89.88 205.46 89.84C204.13 84.63 193.99 85.5 190.04 87.48C189.2 87.91 186.9 89.3 185.78 89.59C183.28 90.23 179.54 93.51 183.77 96.69C186.94 99.07 191.2 93.95 192.39 93.53C192.8 93.29 193.51 93.42 193.95 93.42C194.99 96.42 194.2 95.63 194.56 97.39C194.63 97.74 196.43 97.76 197.97 98.79C199.57 99.86 199.67 101.53 199.27 103.08C198.69 105.31 198.4 108.24 198.4 110.63C199.82 110.63 204.39 110.02 202.89 107.42C202.81 107.27 201.5 104.71 201.5 104.69C201.39 104.27 199.38 99.81 200.75 99.49C200.93 98.45 204.17 97.77 204.34 98.5C205.68 98.85 206.31 104.4 206.24 105.09C206.59 103.62 208.17 102.25 208.11 99.92L208.12 99.93Z" fill="#F38255"/>
<path fill-rule="evenodd" clip-rule="evenodd" d="M257.161 181.96C252.951 163.84 238.241 117.73 210.641 123.07L210.471 123.22C210.391 123.29 212.37 129.79 212.26 130.08C211.51 131.88 208.861 134.18 206.731 134.53C205.141 134.79 204.221 138.92 203.271 140.33C197.601 148.75 199.511 146.83 199.351 158.53C199.311 161.45 201.48 168.04 204.69 169.41L205.481 169.74C208.521 171.03 208.201 171.47 211.781 172.43C216.291 173.63 219.751 175.11 224.331 173.99C228.211 173.04 233.671 173.49 237.771 173.99C242.601 174.58 248.301 180.96 253.201 181.76C253.621 181.83 257.251 182.43 257.371 182.39C257.411 182.28 257.411 182.09 257.161 181.96Z" fill="#FF5F06"/>
<path d="M291.32 220.65H287.561V233.82H291.32V220.65Z" fill="#D5CCE4"/>
<path fill-rule="evenodd" clip-rule="evenodd" d="M287.581 232.78L289.19 235.71L257.651 252.06L256.041 249.13L287.581 232.78Z" fill="#D5CCE4"/>
<path d="M287.931 232.396L258.183 263.417L261.149 266.262L290.898 235.241L287.931 232.396Z" fill="#D5CCE4"/>
<path fill-rule="evenodd" clip-rule="evenodd" d="M276.031 250.23L281.69 253.83C288.81 255.76 285.691 260.25 281.031 262.23C277.931 270.34 268.501 271.64 266.831 271.11C266.431 270.15 267.821 267.81 268.931 266.12C272.521 260.62 278.331 253.33 276.021 250.23H276.031Z" fill="#6426B7"/>
<path fill-rule="evenodd" clip-rule="evenodd" d="M267.121 247.23L278.801 248.12C278.521 248.23 278.561 247.88 281.051 255.76C280.221 255.76 277.221 257.16 276.501 257.57C274.311 256.3 271.881 249.77 267.131 247.22L267.121 247.23Z" fill="#F3C1BB"/>
<path fill-rule="evenodd" clip-rule="evenodd" d="M296.06 137.96C276.48 145.29 279.28 144.78 271.46 162.49C273.89 164.29 274.74 167.41 279.59 170.66C280.27 171.11 280.95 171.61 281.62 172.12C288.68 163.56 296.05 142.83 296.05 137.96H296.06Z" fill="#1C89F6"/>
<path fill-rule="evenodd" clip-rule="evenodd" d="M284.37 252.37L290.74 256.42C298.2 259.28 294.92 264.03 289.99 265.85C286.5 274.97 275.9 276.43 274.03 275.84C273.58 274.76 275.15 272.13 276.4 270.22C280.44 264.04 286.97 255.85 284.38 252.36L284.37 252.37Z" fill="#6426B7"/>
<path fill-rule="evenodd" clip-rule="evenodd" d="M274.601 248.92L284.001 249.37C283.511 249.61 286.441 250.42 290.261 258.53C290.591 259.99 287.071 261.46 285.141 260.57C282.681 259.15 279.951 251.8 274.601 248.93V248.92Z" fill="#F3C1BB"/>
<path fill-rule="evenodd" clip-rule="evenodd" d="M264.661 209.95L311.621 166.93C313.141 167.58 311.831 167.11 313.321 167.47C314.471 167.75 315.551 168.19 316.881 168.58C324.271 170.74 331.051 167.12 329.851 176.34C329.171 181.52 325.151 219.66 320.691 220.97C317.651 221.87 318.161 221.56 311.891 222.29C302.611 223.37 292.811 223.65 283.321 223.65C279.781 223.65 270.931 218.47 268.531 215.19C267.981 214.44 264.891 210 264.651 209.94L264.661 209.95Z" fill="#CBC0DE"/>
<path fill-rule="evenodd" clip-rule="evenodd" d="M284.601 147.25L286.751 142.14C286.021 143.9 282.601 152.21 280.101 149.17C278.841 150.96 277.571 162.32 278.431 165.39C278.711 172.33 279.601 185.16 280.861 191.32C281.061 192.28 281.341 197 282.451 197.25C282.321 198.82 289.231 200.02 290.121 201.3C290.241 201.26 290.961 201.29 291.011 201.19C286.531 193.75 284.341 170.28 284.601 161.03C284.641 159.39 284.641 148.41 284.601 147.25Z" fill="#1C89F6"/>
<path fill-rule="evenodd" clip-rule="evenodd" d="M278.73 166.84C278.92 171.32 279.25 177.54 279.76 182.97C279.89 182.91 280.03 182.84 280.16 182.78C287.27 179.31 283.27 172.01 278.73 166.84Z" fill="#1C89F6"/>
<path fill-rule="evenodd" clip-rule="evenodd" d="M264.54 218.79L306.121 211.51C306.181 209.4 305.58 210.82 305.51 210.37C304.59 209.83 304.1 208.71 303.14 207.75C302.42 207.03 301.711 206.32 300.861 205.46C293.941 198.53 296.07 195.65 287.15 194.55C280.45 193.73 257.84 197.19 251.39 199.66C249.62 199.81 249.71 200.14 248.45 200.52C228.32 206.77 238.58 218.64 250.28 232.54C254.03 237 265.06 252.51 270.71 252.51C277.07 252.51 278.911 250.65 276.811 243.6C274.501 235.85 260.87 226.14 264.54 218.79Z" fill="#EB9425"/>
<path fill-rule="evenodd" clip-rule="evenodd" d="M285.78 195.83L318.08 208.59C317.01 216.68 309.34 219.68 304.04 220.09C293.38 220.91 286.03 221.49 273.96 220.98C273.08 220.94 273.67 221.1 273.02 221.46C277 223.57 286.82 245.16 289.09 252.97C289.72 255.16 282.29 258.39 280.23 258.39C276.12 252.28 249.15 217.73 248.27 213.15C245.81 200.38 317.92 188.19 285.78 195.82V195.83Z" fill="#FF9F24"/>
<path fill-rule="evenodd" clip-rule="evenodd" d="M268.111 112.66C263.881 114.95 266.341 118.2 267.091 122.92C267.921 128.16 270.921 137.51 276.221 138.62C277.121 138.81 279.831 138.39 280.431 137.08C281.091 137.96 284.931 142.2 284.941 142.23C285.001 142.23 296.051 135.68 293.521 130.79C289.171 122.4 289.001 115.84 281.261 111.01C277.241 108.51 272.001 110.55 268.101 112.67L268.111 112.66Z" fill="#F3C1BB"/>
<path fill-rule="evenodd" clip-rule="evenodd" d="M286.36 151.32L288.28 146.78C287.63 148.34 287.3 147.57 284.66 144.86C283.86 144.61 282.87 149.7 282.08 154.51C280.27 165.5 282.03 182.03 284.61 190.51C284.87 191.36 285.34 195.56 286.47 195.79C286.42 197.19 299.83 199.99 300.78 201.13C300.9 201.09 295.17 199.38 295.22 199.3C314.26 202.85 286.92 157.72 286.36 151.33V151.32Z" fill="#EFE6E2"/>
<path d="M283.99 118.61C284.22 118.53 284.47 118.66 284.54 118.89C284.61 119.12 284.49 119.37 284.26 119.44L274.05 122.74C274.14 123.01 274.27 123.4 274.41 123.79C274.65 124.47 274.91 125.19 274.97 125.56C275.18 126.79 275.02 127.49 274.57 127.89C274.12 128.28 273.46 128.29 272.64 128.15C271.62 127.99 270.65 127.33 269.92 126.49C269.18 125.62 268.69 124.53 268.69 123.53C268.69 123.34 268.82 123.15 269.02 123.1L273.48 121.99L283.98 118.59L283.99 118.61ZM273.2 122.98L269.59 123.88C269.69 124.57 270.06 125.3 270.59 125.92C271.19 126.63 271.98 127.16 272.78 127.29C273.36 127.39 273.8 127.41 273.99 127.23C274.2 127.05 274.25 126.6 274.1 125.71C274.05 125.42 273.81 124.73 273.58 124.08C273.43 123.67 273.29 123.27 273.2 122.97V122.98Z" fill="#131414"/>
<path d="M266.841 124.16C266.891 124.32 266.931 124.48 266.991 124.66C267.171 125.29 267.381 126.02 267.651 126.55C267.851 126.94 268.081 127.2 268.331 127.07C268.391 127.04 268.441 126.65 268.481 126.15C268.531 125.44 268.481 124.59 268.421 124.08L266.851 124.17L266.841 124.16ZM266.141 124.9C266.031 124.51 265.931 124.16 265.831 123.92L265.791 123.77C265.781 123.53 265.971 123.32 266.211 123.31L268.731 123.17C268.951 123.14 269.161 123.29 269.211 123.51C269.311 123.93 269.411 125.2 269.341 126.2C269.291 126.98 269.111 127.65 268.721 127.85C267.871 128.29 267.291 127.8 266.861 126.96C266.551 126.37 266.331 125.59 266.131 124.91L266.141 124.9Z" fill="#131414"/>
<path fill-rule="evenodd" clip-rule="evenodd" d="M292.871 129.5L292.011 127.71C292.011 127.71 306.221 136 307.601 137.02C322.771 148.28 324.571 186.08 318.971 202.65C317.481 207.07 319.921 210.53 311.401 212.77C307.391 213.83 301.591 215.53 297.501 215.53C296.721 215.14 285.741 165.36 283.861 153.49C283.231 149.46 281.691 144.99 285.261 141.43C287.201 139.5 292.301 131.72 292.871 129.48V129.5Z" fill="#255EF2"/>
<path fill-rule="evenodd" clip-rule="evenodd" d="M174.561 215.49L299.421 201.84L171.361 141.42L76.8606 147.55L174.561 215.49Z" fill="#F0EFF7"/>
<path fill-rule="evenodd" clip-rule="evenodd" d="M188.321 216.83L178.841 313.53L181.661 316.43L181.931 316.37L191.371 219.97L188.321 216.83Z" fill="#D5CCE4"/>
<path fill-rule="evenodd" clip-rule="evenodd" d="M263.351 207.66L277.801 295.44L279.721 296.66L280.441 296.52L266.891 209.93L263.351 207.66Z" fill="#D5CCE4"/>
<path fill-rule="evenodd" clip-rule="evenodd" d="M276.321 256.87L272.131 253.37L188.071 265.26L193.221 269.45L276.321 256.87Z" fill="#D5CCE4"/>
<path fill-rule="evenodd" clip-rule="evenodd" d="M299.35 201.59L174.19 213.84V223.19L299.35 210.95V201.59Z" fill="#CBC0DE"/>
<path fill-rule="evenodd" clip-rule="evenodd" d="M265.631 209.81L280.341 296.54L288.781 294.84L274.351 209.81H265.631Z" fill="#CBC0DE"/>
<path fill-rule="evenodd" clip-rule="evenodd" d="M199.721 220.49L190.701 314.6L181.801 316.4L191.001 220.49H199.721Z" fill="#CBC0DE"/>
<path fill-rule="evenodd" clip-rule="evenodd" d="M277.19 256.23L192.46 268.17L193.66 277.6L278.38 265.67L277.19 256.23Z" fill="#CBC0DE"/>
<path fill-rule="evenodd" clip-rule="evenodd" d="M272.42 163.34C271.69 163.95 271.18 166.6 267.28 168.22C261.1 170.76 249.63 169.91 244.85 170.49C241.58 170.9 236.13 176.66 235.16 181.14C239.99 181.78 250.25 173.99 258.62 174.8C266.06 175.52 269.23 176.73 276.56 175.83C278.14 175.64 278.65 173.32 280.14 171.04C279.96 170.92 279.78 170.79 279.6 170.68C275.44 167.89 274.22 165.19 272.42 163.35V163.34Z" fill="#DBADA7"/>
<path fill-rule="evenodd" clip-rule="evenodd" d="M290.55 232.6L288.45 236.14L324.11 257.29L323.83 264.55H326.95L327.25 256.49C327.09 255.31 327.23 254.45 325.86 253.56L290.53 232.6H290.55Z" fill="#D5CCE4"/>
<path fill-rule="evenodd" clip-rule="evenodd" d="M327.311 266.85C329.321 266.85 330.961 265.16 330.961 263.09C330.961 261.02 329.321 259.33 327.311 259.33C325.301 259.33 323.671 261.02 323.671 263.09C323.671 265.16 325.311 266.85 327.311 266.85Z" fill="#D5CCE4"/>
<path fill-rule="evenodd" clip-rule="evenodd" d="M290.871 233.22L287.351 234.66L303.271 266.95C304.121 268.66 304.031 267.7 303.961 269.78L303.691 276.65H306.811L307.141 267.94C307.021 266.98 307.101 266.85 306.391 264.72L290.861 233.23L290.871 233.22Z" fill="#D5CCE4"/>
<path fill-rule="evenodd" clip-rule="evenodd" d="M154.191 158.39L168.531 163.52H138.821L127.901 158.85L154.191 158.39Z" fill="#D5CCE4"/>
<path fill-rule="evenodd" clip-rule="evenodd" d="M136.96 98.6301L159.79 96.6101L161.04 96.9101L166.97 152.34L165.74 152.94L141.43 146.64L136.96 98.6301Z" fill="#D9D1E7"/>
<path fill-rule="evenodd" clip-rule="evenodd" d="M135.571 98.3201L159.791 96.6001L165.881 152.98L140.161 146.32L135.571 98.3201Z" fill="#CBC0DE"/>
<path d="M148.731 104.89H143.381V160.91H148.731V104.89Z" fill="#B9AECA"/>
<path fill-rule="evenodd" clip-rule="evenodd" d="M291.921 116.99L291.371 123.05C291.211 124.29 291.201 124.91 290.041 125.02C289.421 125.08 288.84 124.97 288.28 124.89C287.05 124.72 287.491 124.49 287.931 123.3C288.691 121.23 288.261 118.4 285.851 118.89C281.761 119.72 283.72 129.41 284.82 132.13C286.5 136.3 277.49 143.02 273.03 142.11C270.8 141.66 270.291 140.42 269.971 140.31C269.321 139.22 271.54 136.43 271.15 134.6C271.28 134.94 271.85 135.17 272.08 135.36C273.37 135.75 274.82 134.78 274.76 133.44C274.95 133.45 273.3 133.23 271 133.15C270.62 133.14 270.251 133.15 269.931 133.23C269.331 133.43 269.33 132.94 269.21 132.29C268.97 130.96 269.971 129.25 271.981 130.3C274.871 131.82 276.951 132.14 278.051 130.53C279.561 128.32 280.6 127.82 281.57 124.75C281.86 124.28 281.261 121.12 279.931 120.47C277.041 119.03 278.471 114.05 275.871 114.05C274.571 114.05 273.24 116.24 268.53 116.82C267.91 116.9 266.06 117.33 265.75 116.45C265.49 116.36 265.741 114.08 264.411 112.45C262.211 109.75 263.091 107.61 267.601 104.23C270.991 101.67 279.43 101.94 283.46 100.73C288.18 99.32 293.14 103.98 291.94 116.95L291.921 116.99Z" fill="#6426B7"/>
<path fill-rule="evenodd" clip-rule="evenodd" d="M307.34 280.32C309.35 280.32 310.99 278.68 310.99 276.67C310.99 274.66 309.35 273.02 307.34 273.02C305.33 273.02 303.7 274.66 303.7 276.67C303.7 278.68 305.34 280.32 307.34 280.32Z" fill="#D5CCE4"/>
<path d="M259.63 249.47H256.01V257.23H259.63V249.47Z" fill="#D5CCE4"/>
<path fill-rule="evenodd" clip-rule="evenodd" d="M184.481 173.15C184.421 174.47 185.681 175.74 187.981 175.71C189.241 175.69 191.421 175.2 191.551 172.97L192.781 163.3H183.381L184.481 173.15Z" fill="#BA6956"/>
<path fill-rule="evenodd" clip-rule="evenodd" d="M183.431 162.53C182.861 162.9 182.531 163.34 182.531 163.81C182.531 163.95 182.551 164.09 182.611 164.22C182.551 164.35 182.531 164.48 182.531 164.63C182.531 165.92 184.971 166.96 187.981 166.96C190.991 166.96 193.431 165.91 193.431 164.63C193.431 164.49 193.401 164.35 193.351 164.22C193.401 164.09 193.431 163.96 193.431 163.81C193.431 163.34 193.101 162.9 192.531 162.53C192.561 162.44 192.581 162.35 192.581 162.25C192.581 161.23 190.521 160.4 187.981 160.4C185.441 160.4 183.381 161.23 183.381 162.25C183.381 162.34 183.401 162.44 183.431 162.53Z" fill="#D3C6E0"/>
<path fill-rule="evenodd" clip-rule="evenodd" d="M217.041 121.63L210.321 109.18L200.371 106.27L196.421 110.65C195.191 114.62 195.631 117.08 196.101 120.74C196.311 122.37 197.001 126.28 198.201 129.02C200.321 133.87 203.471 130.64 204.801 130.17C208.321 128.91 206.931 130.79 208.081 133.58C208.171 134.6 208.451 134.88 208.651 135.66C209.131 137.53 213.381 134.54 214.561 132.29C216.241 129.09 218.221 125.61 217.181 121.82C217.141 121.47 217.261 121.84 217.061 121.64L217.041 121.63Z" fill="#9D5959"/>
<path fill-rule="evenodd" clip-rule="evenodd" d="M189.031 142.82C188.951 142.51 188.871 142.21 188.801 141.93C188.301 139.96 188.001 137.95 187.571 136.24C187.071 134.29 186.271 127.27 185.431 125.13C184.571 122.93 186.691 121.67 185.361 118.95C182.161 112.37 193.021 118.72 193.121 124.93C193.141 126.08 192.221 128.08 191.391 129.07C190.161 131.11 192.501 133.41 193.051 136.1C193.121 136.43 193.601 137.6 193.731 138.11C194.021 139.24 194.321 140.25 194.631 141.18C192.781 141.44 190.871 141.89 189.031 142.82Z" fill="#9D5959"/>
<path fill-rule="evenodd" clip-rule="evenodd" d="M223.12 154.13C220.98 156.33 210.12 163.67 207.09 164.95C203.69 166.39 201.06 166.42 199 165.48C194.87 163.58 190.32 147.81 188.81 141.92C188.46 140.56 188.22 139.19 187.95 137.91C189.84 137.99 192.53 138.4 194.46 138.7C202.93 159.64 208.17 143.65 215.22 134.26C225.88 120.07 240.67 136.09 223.13 154.11L223.12 154.13Z" fill="#FF8309"/>
<path fill-rule="evenodd" clip-rule="evenodd" d="M184.211 137.24C183.681 131.98 183.491 126.2 181.961 123.07C181.701 122.55 181.171 121.41 180.761 120.4C179.901 118.31 179.641 118.35 176.911 118.79C173.121 119.4 172.571 121.45 173.101 122.76C173.741 124.36 174.061 123.67 174.901 123.34C175.431 123.13 176.071 123.26 176.721 125.14C180.531 131.44 178.981 127.37 177.991 135.43C177.761 137.27 170.711 155.94 173.791 156.15C186.181 157.01 186.071 155.59 184.221 137.23L184.211 137.24Z" fill="#F6BEB7"/>
<path fill-rule="evenodd" clip-rule="evenodd" d="M196.32 110.48L195.97 109.66C192.84 105.8 194.57 98.3502 213.55 102.77C223.67 105.12 219.99 117.1 218.39 118.71C216.84 120.26 219.71 123.71 217.44 124.42C215.1 125.15 210.42 126.48 210.23 122.74C210.16 121.25 211.51 117.88 210.55 116.7C209.35 115.23 208.27 115.07 206.7 116.28C205.06 117.55 204.1 120.03 202.34 116.97C201.35 115.24 202.4 116.85 200.95 114.17C200.67 113.65 203.18 110.13 200.23 109.53C198.88 109.25 196.87 110.53 196.32 110.48Z" fill="#6426B7"/>
<path fill-rule="evenodd" clip-rule="evenodd" d="M246.76 178.02L264.641 184.65L235.44 187.93L215.551 180.71L246.76 178.02Z" fill="#DDD6E9"/>
<path fill-rule="evenodd" clip-rule="evenodd" d="M203.331 156.48L220.911 159.39L234.691 187.56L215.251 180.71L203.331 156.48Z" fill="#CBC0DE"/>
<path fill-rule="evenodd" clip-rule="evenodd" d="M174.131 197.9C180.721 197.9 186.091 195.98 186.091 193.63C186.091 191.28 180.721 189.35 174.131 189.35C167.541 189.35 162.171 191.27 162.171 193.63C162.171 195.99 167.541 197.9 174.131 197.9Z" fill="#DDD6E9"/>
<path fill-rule="evenodd" clip-rule="evenodd" d="M220.79 138.37L215.73 137.16C214.94 136.97 214.14 137.47 213.94 138.26L211.6 148.1C211.41 148.89 211.9 149.7 212.69 149.89L217.75 151.09C218.54 151.28 219.35 150.79 219.54 150L221.89 140.16C222.08 139.37 221.58 138.56 220.79 138.37Z" fill="#FFCE63"/>
<path d="M213.521 141.84L175.081 133.77L171.371 195.5L169.621 195.4L173.381 132.65L173.451 131.63L174.441 131.85L213.881 140.11L213.521 141.84Z" fill="#DDD6E9"/>
<path fill-rule="evenodd" clip-rule="evenodd" d="M174.26 134.11C175.12 134.11 175.83 133.41 175.83 132.54C175.83 131.67 175.13 130.97 174.26 130.97C173.39 130.97 172.69 131.68 172.69 132.54C172.69 133.4 173.39 134.11 174.26 134.11Z" fill="#DDD6E9"/>
<path fill-rule="evenodd" clip-rule="evenodd" d="M76.8005 147.41L174.241 213.76V223.34L76.8005 156.21V147.41Z" fill="#D5CCE4"/>
<path fill-rule="evenodd" clip-rule="evenodd" d="M305.101 178.21C297.591 185.42 284.941 184.6 277.341 181.46C271.561 179.08 256.681 173.57 252.101 177.32C248.511 180.26 249.461 183.34 242.971 183.08C242.661 183.07 241.001 182.84 239.351 183.46C234.841 185.15 233.721 184.84 236.981 180.66C237.371 180.16 237.951 179.64 238.541 179.06C249.151 168.56 258.631 170.06 272.231 171.42C281.351 172.32 291.351 173.99 294.091 163.56C294.231 163.01 294.371 162.37 294.521 161.67C298.081 165.87 303.141 171.61 305.091 178.21H305.101Z" fill="#F3C1BB"/>
<path fill-rule="evenodd" clip-rule="evenodd" d="M305.9 178.84C304.67 180.37 305.49 179.02 304.43 177.65C299.9 171.8 296.65 168.49 293.22 164.64C293.47 163.52 293.89 162.16 294.22 160.52C295.02 156.55 296.14 151.58 297.89 148.11C299.83 144.27 306.09 140.25 310.1 142.85C317.97 147.96 313.34 165.48 309.24 173.49C308.21 175.5 306.94 176.87 305.9 178.84Z" fill="#1B95F7"/>
<path d="M65.0905 108.21H52.2705V111.97H65.0905V108.21Z" fill="#E6E1EF"/>
</svg>
